# xmcd
#
# Track frame offsets: 
#        150
#        18596
#        37659
#        62259
#        81003
#        104248
#        124887
#        149151
#        165004
#        182643
#        200056
#
# Disc length: 2921 seconds
#
# Revision: 1
# Processed by: cddbd v1.5.2PL0 Copyright (c) Steve Scherf et al.
# Submitted via: ExactAudioCopy v1.0b3
#
DISCID=920b670b
DTITLE=Two Fires - Burning Bright
DYEAR=2010
DGENRE=Hard Rock
TTITLE0=Is It Any Wonder
TTITLE1=Lost In The Song
TTITLE2=Some Things Are Better Left Unsaid
TTITLE3=Epic In The Night
TTITLE4=Shattered Without You
TTITLE5=Burning Bright
TTITLE6=Hold On To Your Dream
TTITLE7=Still In Love
TTITLE8=Answer To My Prayer
TTITLE9=Relentless
TTITLE10=All For One
EXTD=
EXTT0=
EXTT1=
EXTT2=
EXTT3=
EXTT4=
EXTT5=
EXTT6=
EXTT7=
EXTT8=
EXTT9=
EXTT10=
PLAYORDER=
